<?xml version="1.0" encoding="UTF-8" standalone="no"?>
<svg
   xmlns:dc="http://purl.org/dc/elements/1.1/"
   xmlns:cc="http://creativecommons.org/ns#"
   xmlns:rdf="http://www.w3.org/1999/02/22-rdf-syntax-ns#"
   xmlns:svg="http://www.w3.org/2000/svg"
   xmlns="http://www.w3.org/2000/svg"
   height="50"
   width="50"
   xml:space="preserve"
   viewBox="0 0 50 50"
   version="1.1"
   id="Layer_1"><metadata
     id="metadata13"><rdf:RDF><cc:Work
         rdf:about=""><dc:format>image/svg+xml</dc:format><dc:type
           rdf:resource="http://purl.org/dc/dcmitype/StillImage" /><dc:title></dc:title></cc:Work></rdf:RDF></metadata><defs
     id="defs11" /><style
     id="style3"
     type="text/css">
	.st0{fill:#C93636;}
	.st1{fill:#FFFFFF;}
</style><circle
     style="fill:#c93636"
     id="circle5"
     r="24.910494"
     cy="25.089506"
     cx="24.910494"
     class="st0" /><path
     style="fill:#ffffff"
     id="path7"
     d="M 39.039416,35.365084 28.763837,25.089505 39.000494,14.813926 c 0.155691,-0.15569 0.155691,-0.389226 0,-0.544917 l -3.308425,-3.308425 c -0.155691,-0.155691 -0.389227,-0.155691 -0.544918,0 L 24.910495,21.236163 14.673838,10.999506 c -0.155691,-0.155691 -0.389227,-0.155691 -0.544917,0 l -3.308424,3.308425 c -0.155691,0.155691 -0.155691,0.389227 0,0.544918 L 21.01823,25.089505 10.781573,35.326162 c -0.15569,0.155691 -0.15569,0.389227 0,0.544917 l 3.308426,3.308424 c 0.15569,0.155691 0.428148,0.155691 0.544917,0 L 24.910495,28.942847 35.147151,39.179503 c 0.155691,0.155691 0.428149,0.155691 0.58384,0.03893 l 3.308425,-3.308426 c 0.155691,-0.15569 0.155691,-0.389226 0,-0.544917 z"
     class="st1" /></svg>