<svg xmlns="http://www.w3.org/2000/svg" viewBox="0 0 332.98728 402.93513" height="429.797" width="355.186"><path d="M0 310c0-13.727.055-24.859.123-24.738.068.121 11.203 11.352 24.746 24.958l24.622 24.738H0V310z" fill="#0743b5"/><path d="M33.57 300.378L8.766 276.094l24.757-.128c13.616-.07 24.834-.05 24.93.046.095.095.115 11.08.045 24.411l-.128 24.238-24.802-24.284z" fill="#0050b9"/><path d="M67.994 300.354l-.017-24.506h47.878l-2.512 2.832c-1.381 1.558-12.146 12.585-23.922 24.506l-21.41 21.674-.017-24.506z" fill="#0935a2"/><path d="M83.65 327.692c3.807-3.996 14.805-15.133 24.44-24.75l17.52-17.484v49.5H76.73l6.92-7.266z" fill="#002093"/><path d="M135.953 310.243v-24.716l1.283 1.195c.705.656 11.704 11.778 24.443 24.715l23.16 23.52h-48.886v-24.714z" fill="#072798"/><path d="M170.434 300.23l-24.379-24.382h49.009v24.382c0 13.411-.057 24.383-.125 24.383-.07 0-11.096-10.972-24.505-24.383z" fill="#45168a"/><path d="M205.9 300.287v-24.44h49.5l-17.484 17.52c-9.616 9.635-20.754 20.633-24.75 24.44l-7.266 6.92v-24.44z" fill="#c40586"/><path d="M218.66 332.125c1.381-1.557 12.257-12.696 24.168-24.752l21.656-21.92.017 24.752.017 24.753h-48.371l2.512-2.833z" fill="#e63d9a"/><path d="M274.37 300.287v-24.44h49.5l-17.485 17.52c-9.616 9.635-20.754 20.633-24.75 24.44l-7.265 6.92v-24.44z" fill="#e5459b"/><path d="M291.028 258.238c4.078-4.267 15.187-15.516 24.687-24.996l17.272-17.238v49.992h-49.372l7.413-7.758z" fill="#f14d94"/><path d="M274.37 231.515v-24.63h49.5l-24.625 24.63c-13.544 13.546-24.682 24.63-24.75 24.63-.069 0-.125-11.084-.125-24.63z" fill="#e74479"/><path d="M240.235 231.684L216.2 207.132l23.99-.128c13.195-.07 24.07-.05 24.165.046.095.095.116 11.201.046 24.68l-.128 24.507-24.037-24.553z" fill="#dd097a"/><path d="M205.9 240.792c0-13.862.056-25.105.124-24.984.067.121 11.314 11.463 24.992 25.204l24.869 24.984H205.9v-25.204z" fill="#e9399b"/><path d="M148.713 263.163c1.382-1.557 12.369-12.807 24.415-24.998l21.903-22.167.016 25 .017 24.998H146.2l2.513-2.833z" fill="#68198e"/><path d="M135.97 231.638l-.017-24.752h48.371l-2.512 2.832c-1.382 1.558-12.258 12.696-24.169 24.752l-21.656 21.92-.017-24.752z" fill="#0e3cac"/><path d="M101.118 231.72l-24.246-24.588 24.2-.128c13.31-.07 24.277-.05 24.373.046.095.095.116 11.218.046 24.716l-.128 24.543-24.245-24.588z" fill="#0b52be"/><path d="M67.977 241.12c0-13.681.09-24.875.202-24.875.112 0 8.47 8.59 18.573 19.087 10.104 10.499 20.918 21.693 24.032 24.876l5.66 5.788H67.977V241.12z" fill="#003fad"/><path d="M33.496 241.12c13.68-13.681 24.928-24.875 24.997-24.875.068 0 .125 11.194.125 24.875v24.876H8.624l24.872-24.876z" fill="#096cc9"/><path d="M0 231.635v-24.75h48.88l-6.921 7.266c-3.807 3.996-14.805 15.134-24.44 24.75L0 256.385v-24.75z" fill="#0086d7"/><path d="M0 171.091c0-13.727.055-24.858.123-24.738.068.121 11.203 11.352 24.746 24.958L49.49 196.05H0v-24.96z" fill="#038bd7"/><path d="M33.593 161.737l-24.779-24.06 24.733-.127c13.603-.07 24.811-.05 24.907.046.095.095.115 10.98.045 24.187l-.128 24.013-24.778-24.06z" fill="#0084b5"/><path d="M67.977 161.688v-24.257h47.893l-6.428 6.773c-3.535 3.725-14.311 14.641-23.946 24.257l-17.52 17.485v-24.258z" fill="#0292b5"/><path d="M83.65 188.783c3.807-3.996 14.805-15.133 24.44-24.75l17.52-17.484v49.5H76.73l6.92-7.266z" fill="#078bcb"/><path d="M205.9 161.617V137.43l24.753.017 24.752.017-21.92 21.656c-12.056 11.911-23.194 22.787-24.752 24.169l-2.833 2.512v-24.185z" fill="#ff6b45"/><path d="M218.66 193.216c1.381-1.557 12.257-12.696 24.168-24.752l21.656-21.92.017 24.752.017 24.753h-48.371l2.512-2.833z" fill="#ea2f4e"/><path d="M274.37 171.052v-24.997l24.875 24.872c13.682 13.68 24.876 24.928 24.876 24.997 0 .069-11.194.125-24.876.125H274.37v-24.997z" fill="#dc4648"/><path d="M308.189 161.714l-24.553-24.036 24.507-.128c13.479-.07 24.585-.05 24.68.046.096.095.116 10.969.046 24.164l-.128 23.99-24.552-24.036z" fill="#e6364b"/><path d="M286.144 124.747c1.381-1.558 12.479-12.918 24.66-25.245l22.15-22.412.016 25.245.017 25.245h-49.356l2.513-2.833z" fill="#e95d2c"/><path d="M274.37 91.924v-24.44h49.5l-17.485 17.519c-9.616 9.635-20.754 20.633-24.75 24.44l-7.265 6.92v-24.44z" fill="#e69619"/><path d="M240.27 92.073L216.268 67.73l23.956-.127c13.176-.07 24.034-.05 24.13.045.095.096.116 11.108.046 24.47l-.128 24.298-24.002-24.343z" fill="#ead000"/><path d="M205.9 102.372V77.164l1.283 1.194c.705.657 11.926 12 24.935 25.208l23.654 24.014H205.9v-25.208z" fill="#e9d600"/><path d="M147.124 126.441c1.065-1.35 47.52-49.105 47.769-49.105.094 0 .17 11.305.17 25.122v25.122h-48.837l.898-1.139z" fill="#99b86a"/><path d="M135.953 91.988V67.484h48.386l-6.427 6.773c-3.536 3.725-14.423 14.752-24.193 24.504l-17.766 17.73V91.988z" fill="#63a687"/><path d="M100.98 91.867L76.6 67.484h49.009v24.383c0 13.41-.056 24.383-.125 24.383s-11.096-10.972-24.504-24.383z" fill="#56a79e"/><path d="M67.977 102.458c0-13.817.09-25.122.202-25.122.112 0 9.024 9.254 19.805 20.565 10.782 11.311 21.593 22.616 24.025 25.122l4.422 4.557H67.977v-25.122z" fill="#0e8d7c"/><path d="M16.166 119.821c4.078-4.267 15.297-15.626 24.933-25.242l17.519-17.484v50.485H8.752l7.414-7.759z" fill="#008f98"/><path d="M0 91.867V67.484h49.008L24.63 91.867C11.221 105.277.194 116.25.125 116.25.056 116.25 0 105.278 0 91.867z" fill="#098293"/><path d="M0 34.175v-23.95l15.379 14.96c8.459 8.229 19.486 19 24.506 23.937l9.127 8.975-24.506.014L0 58.125v-23.95z" fill="#389e89"/><path d="M33.593 24.306L8.814.246 33.547.12C47.15.049 58.358.069 58.454.164c.095.096.115 10.98.045 24.188l-.128 24.013-24.778-24.06z" fill="#44a592"/><path d="M67.977 24.257V0h47.893l-6.428 6.773c-3.535 3.725-14.311 14.641-23.946 24.257l-17.52 17.484V24.257z" fill="#45a29a"/><path d="M76.843 57.953c0-.216 46.735-45.636 47.908-46.56.813-.641.858.565.858 23.028v23.704h-24.383c-13.41 0-24.383-.077-24.383-.172z" fill="#3aa08a"/><path d="M135.953 34.175v-23.95l23.588 23.215c12.972 12.768 23.861 23.546 24.196 23.95.54.65-2.194.735-23.587.735h-24.197v-23.95z" fill="#54a181"/><path d="M170.434 24.16L146.051.053l24.506-.026L195.064 0v24.137c0 13.275-.056 24.135-.124 24.133-.067-.002-11.095-10.851-24.506-24.11z" fill="#7caf74"/><path d="M205.9 24.185V0l24.753.017 24.752.017-21.92 21.656c-12.056 11.91-23.194 22.787-24.752 24.169L205.9 48.37V24.185z" fill="#babd4a"/><path d="M237.426 36.928c11.785-11.64 22.702-22.294 24.26-23.676l2.832-2.513v47.386l-24.26-.017-24.26-.016 21.428-21.164z" fill="#f5e02d"/><path d="M274.37 34.12V10.114l5.541 5.45c3.048 2.998 14.131 13.712 24.63 23.81 10.498 10.098 19.087 18.447 19.087 18.555 0 .108-11.083.196-24.63.196H274.37V34.12z" fill="#e8cb18"/><path d="M.28 368.207l-.132-23.89 24.629-.001 24.63-.001-16.423 16.46c-9.032 9.052-16.536 16.455-16.676 16.45-.14-.003-3.627 3.34-7.75 7.433-4.123 4.092-7.643 7.44-7.821 7.44-.178 0-.384-10.75-.457-23.89z" fill="#0732a5"/><path d="M68.37 378.309v-24.625l9.011 9.232a8751.363 8751.363 0 0 1 22.288 22.961c7.302 7.551 14.165 14.474 15.25 15.384l1.971 1.654-24.26.01-24.26.01V378.31z" fill="#0024a0"/><path d="M101.41 369.067l-23.853-23.519 1.687-.334c1.46-.29 1.372-.322-.652-.243-1.287.05-2.34-.076-2.34-.281 0-.205 11.083-.373 24.63-.373h24.629v24.136c0 13.276-.056 24.136-.124 24.135-.067 0-10.857-10.585-23.977-23.52z" fill="#02229d"/><path d="M33.645 378.79l24.135-24.143.316 2.84c.174 1.561.34 12.426.37 24.143l.053 21.304H9.511l24.134-24.143z" fill="#062aa5"/></svg>